<svg viewBox="0 0 512 512" xmlns="http://www.w3.org/2000/svg" fill-rule="evenodd" clip-rule="evenodd" stroke-linejoin="round" stroke-miterlimit="2"><g transform="matrix(.5645 0 0 .57207 -12 -18)"><ellipse cx="474.5" cy="479.5" rx="453.5" ry="447.5" fill="#fff"/><clipPath id="a"><ellipse cx="474.5" cy="479.5" rx="453.5" ry="447.5"/></clipPath><g clip-path="url(#a)"><ellipse cx="474.5" cy="479.5" rx="453.5" ry="447.5" fill="#fff"/><path d="M370 915a437 437 0 01-193-98l5-2 41-5c277-37 421-73 441-111 6-13-1-26-20-38l-118-54c-20-9-25-14-21-22 8-16 74-38 159-52a3627 3627 0 01189-25l-35 9c-46 12-79 21-110 31-94 29-124 48-105 65l18 10c56 27 127 62 134 67 10 7 19 16 23 24 3 4 3 6 3 12 0 7 0 8-3 12-11 15-71 53-130 82-60 29-119 52-227 89-32 11-31 11-51 6z" fill="#afdff7" fill-rule="nonzero"/><path d="M150 791a433 433 0 01-74-96 857 857 0 01210 8l17 3v10l1 11h-22c-18 0-22 1-24 2v3c1 2 14 3 66 3 47 0 49 0 47-5-1-3-5-3-25-3l-21-1-1-9-1-8 5 1 68 15a1002 1002 0 00128 24c-9 3-124 25-169 32l-29 5-159 22-17-17z" fill="#5e843a" fill-rule="nonzero"/><g fill="#5e833a" fill-rule="nonzero"><path d="M534 740c-49-5-96-14-144-25a1006 1006 0 00-67-15 439 439 0 010-45l14-1c63-5 105-12 173-29l22-5 50 22 58 27c21 13 22 25 3 38a536 536 0 01-90 34l-19-1zM282 693l-78-9H84l-14 1-6-13a451 451 0 01-20-51l17 4c82 20 148 29 216 31h28v6a535 535 0 01-4 34l-19-3z"/></g><g fill="#8bc53f" fill-rule="nonzero"><path d="M266 646c-65-2-144-14-223-34-4-1-4-2-6-9-8-29-16-78-16-105 0-11-3-10 22-12l29-3a725 725 0 01182 9l3 2c2 0 4 1 5 3l4 2c2 0 1 2-1 2l-4 2c-1 2 0 3 2 4l3 5c0 2 1 3 2 3l3 2c2 2 3 2 9 1l9-3 4-1 6-2 3-2c1 0 3 135 2 136h-38zM320 597c-1-77-1-87 1-87l4-4c1-3 2-4 4-3a1362 1362 0 0063 14 1068 1068 0 00176 27l-9 4c-31 9-57 23-62 33-3 4-3 12-1 16s12 12 17 14l4 3a1060 1060 0 01-192 32h-4l-1-49z"/></g><g fill="#a2d165" fill-rule="nonzero"><path d="M589 536c-65-3-126-12-189-27a1414 1414 0 00-64-15c0-1 5-6 8-6 2-1 3 0 7 3s6 4 9 3l6-1h2c0 3 4 1 10-5l6-6-1-5c-1-6-3-8-6-7s-3-1-1-2l6-9 3-9-2-2-4-3c-2-2-4-2-6-2-4 1-4 0-1-3l2-3-4-7-2-8 13-3c16-2 29-5 64-13 35-9 63-14 63-14 1 1 2 81 1 100l-1 17h-13c-14 0-18 1-16 3s69 3 72 1c3-1 3-1 1-3l-16-1h-14l-1-14a3264 3264 0 010-105 1004 1004 0 01200-20 599 599 0 01199 28c3 2 7 42 8 71v21l-18 2c-54 5-180 21-224 28a1291 1291 0 00-88 16h-9zM233 478l-79-6c-20-1-50 0-74 2l-24 2-24 2-11 1v-14c0-14 1-31 3-46l1-9 4 1 23 5a655 655 0 00212 19l7-1 4 4c6 6 9 7 13 6h9c1-2 1-2 2 1l2 3c0 2-6 9-9 10-2 1-3 2-3 4 0 3-2 4-3 1-1-2-7-1-12 3l-6 3-3 1-3 1-6-1c-5 1-5 1-6 6l-3 4-14-2z"/></g><g fill="#c5e19e" fill-rule="nonzero"><path d="M183 427c-36-2-74-8-129-20-30-7-27-6-27-11a382 382 0 0133-104l19-3c15-2 23-2 49-2a919 919 0 01115 8l6 2 3 4c2 2 1 2-5 3l-8-1-4-1c-1 1-4 0-5-1h-5-2l-2 1c-2 0-2 1-2 7 0 7 0 7 3 8 2 0 2 0-1 4-4 7-4 12 0 15 3 1 3 1 6-2s3-3 5-1l4 1h13l3-2 6-1 2-1-2 3-2 5c0 3 0 3-3 2-8-2-11-2-14 1-2 2-3 2-4 1-3-1-6-1-9 2l-2 3 2 4 2 5-1 4 2 8v6l5 1c5 2 6 2 8 1 5-2 13-2 14 0 1 1 5 0 10-3 5-4 6-4 9-1 3 2 3 2 4 1l5-2 3-2c1-1 6-1 6 1l-2 1c-1 0-2 1-1 3l-2 2c-1 0-3 1-3 3 0 1-1 2-3 2-3 0-4 2-3 6s0 6-5 6c-6 0-9-2-9-5 0-1-1-3-4-4-4-3-11-4-11-2l-3 3-3 6c0 2-1 4-3 5s-2 1-2 6 1 7 4 11l4 5h6l11-1 6-1-1 4-1 4c-2 3-59 5-85 3zM360 412l5-10 4-8c-1 0 0-2 3-4 3-3 4-4 4-9 1-5 1-5-2-7l-3-6c-1-5-4-6-7-3-2 2-2 2-4 1-3-3-7-2-7 2l-3 4c-1 2-2 3-6 3-3 0-4 0-4-5 0-2-1-3-3-4-6-3-8-8-4-8l8-1h6c3 3 5 3 11 2 6-2 6-2 8 0 1 2 2 3 4 1h4c2 2 7 2 8 0l2-5c0-4 0-5-2-7-3-3-4-9-1-11 2-2 2-3 1-4l-1-6c0-7-5-8-10-2l-6 4-3 2-5 1c-3 0-4 0-6 2-2 3-6 3-8 1-1-1-2-2-5-2-3 1-5 0-7-2-4-4-4-4-2-4l3-3c2-3 6-3 9 0s9 2 14-1 6-5 3-7a1226 1226 0 00118 25l-3 4c-1 4-1 5 2 8 1 3 3 4 4 4l4 2c1 2 1 2-1 3l-2 1 2 3c2 1 2 2 2 3l2 1 2 1c0 2 1 2 4 1l4-1 3-1 3-1h3l3-2v16l-58 12a940 940 0 01-90 17zM885 380a621 621 0 00-225-18c-46 4-109 12-136 18-5 1-6 0-6-7 0-4 1-5 3-7l4-6 2-3 3-2c4-4 6-4 9-1 3 2 9 4 10 2h2c1 1 2 0 5-3l6-3a953 953 0 00194-7 434 434 0 00137-38l13 33 13 48-34-6z"/></g><g fill="#9ad7f7" fill-rule="nonzero"><path d="M582 342a341 341 0 00-26-3l3-5 3-5-3-3-5-2c-3 0-3-1-1-3 1-1 1-2-1-7-3-5-4-6-5-4-1 3-21 2-21 0s4-4 6-4l2 2h3l4-2c2 0 4-2 4-4l3-5 3-5 2-3c3-2 5-11 2-11-1 0-2-1-2-3-1-3-3-4-5-2h-2c-2-2-4-1-6 3-1 3-2 3-5 3-2 0-2 0-3-2l-2-4c-2-1-5-4-4-5a127 127 0 0128 1l6-1c2-3 2-6 0-7-2 0-3-6-1-7v-3l-1-4c0-4-2-4-6-1l-4 3-2 1-3 1-3 1c-1 2-5 2-6 1l-3-1-5-2c-2-2-2-2 0-4 3-2 4-3 8 0 3 1 3 1 7-1 2-1 3-2 3-4s1-2 8-4l9-1 3-5 2-5 28-6a1052 1052 0 01239-15 332 332 0 0157 92 1478 1478 0 01-84 28 883 883 0 01-224 17zM470 330a1353 1353 0 01-87-20c2-1 11-17 11-20 0-4-10-16-14-17-2 0-3-3-1-7l1-4 18-3a988 988 0 0056-7c2 2 2 2 4 0h14l3-1 4-1c1 0 1 2-1 2l-1 3c0 2 0 2-2 1-3-1-8 0-9 1 0 1-1 2-3 1-3-2-8 2-5 4l1 8 2 8 11 1c8 0 10 0 12-2 3-2 4-2 6 0l6-1c3-2 5-2 5-1v1l-2 2-5 5c-1 0-2 1-2 4l-1 4c-2 1-7-1-8-3l-4-4c-4-1-4-1-6 1l-3 4-2 4c-2 0-1 7 2 11 2 3 2 3 14 2 2 0 2 0 2 2l2 4 1 4c-1 3 6 10 9 8s8-1 9 2c0 1 0 2-3 5-3 4-6 4-34-1zM207 282a488 488 0 00-137-1l-5 1 3-7 9-15 5-9 7 1a1005 1005 0 00139 16c5 1 5 1 3 3l-1 3-3 1c-2 1-2 1-2 5l1 3h-4l-15-1z"/></g><g fill="#afdff7" fill-rule="nonzero"><path d="M203 258a1215 1215 0 01-115-15 538 538 0 01103-115l6-4 14 1c57 6 117 16 184 32l70 15c3 0 10 4 11 6s0 6-1 5l-2-3c0-1-1-2-3-2h-4l1 4c0 4 0 4-3 3-3-2-5 1-5 5 0 2-1 3-3 4-3 1-3 5 0 9 3 3 3 3 5 1 1-2 1-1 2 1 1 3 0 4-2 6l-3 3c-1-1-1 6 1 8l3 1 2 2 4 1 3-1c1-3 3-2 3 1l1 4v2h-9l-8-1h-4v4l-1 6a1134 1134 0 01-72 10l1-1 1-3 2-10c2-6 2-6 0-7-1-1-2-2-3-1l-7 1c-4 0-4 0-5-2l1-4v-5c-3-5-3-12-1-13l2-3c0-4-3-6-7-5-1 0-3 0-4-2-2-3-2-3 0-4l2-3c0-2-3-5-6-5l-1-2c0-3-4-8-8-10-3-1-5-2-5-5-2-6-7-9-9-5-2 1-5 1-8-2-2-2-3-2-4-1-3 2-3 1-4-2 0-2 0-2-4-3-4 0-9 2-9 3l-3 1c-2 1-3 1-3 3s-1 2-5 2l-5-1c-2-1-5 1-5 3 0 3-2 6-4 6l-3 1c-1 2-2 2-4 0s-2-2-4-1c-3 1-4 4-4 9 0 4-1 5-2 5l-3-2c0-2-7-2-7 0l-2 1c-2-1-4 2-4 7 0 4 0 5 2 6l2 2-5 2c-3 2-3 2-3 6 1 7 3 9 6 9 2 0 2 0 3 2l2 3c1 1 2 2 1 3l-1 3c0 2 0 2-2 1l-2-5c-1-2-1-2-5-3-6 0-8 2-6 5l1 5c0 2-2 3-6 1-2-2-2-2-5 1-2 2-2 3-2 7s0 4-3 5c-5 1-6 3-5 10l1 5h-3l-14-1zM561 215l-3-3c-2-1-2-2-1-4l1-5v-4c3-5 4-10 4-13v-2h14a1088 1088 0 00201-11l24-3c2 0 24 23 24 25h-2l-28-1a979 979 0 00-221 21c-10 2-11 2-13 0z"/></g><path d="M590 176a1590 1590 0 01-39-5l2-4c1-2 1-2-1-3h-3l-3-2c-2-2-2-2 0-3v-3l-2-2-2-2-6-7c-1 0-2-1-2-3-2-3-4-5-6-2 0 1-1 1-3-1l-5-1c-1 0-2 0-2-2s0-2-4-1l-4 1-3 1-2 2-4 1c-4 0-5 0-5 2-1 3-5 5-8 4-2-2-5 1-5 5s-1 5-3 3c-1-2-1-2-5 0-3 1-3 2-3 4l1 4c2 2 2 2 0 2l-70-14a1465 1465 0 00-195-34l33-23a422 422 0 01168-58c40-6 98-5 137 1a433 433 0 01248 125l-58 9c-50 6-101 8-146 6z" fill="#ccebfa" fill-rule="nonzero"/></g></g></svg>